<svg id="envIElcomrA1" xmlns="http://www.w3.org/2000/svg" xmlns:xlink="http://www.w3.org/1999/xlink" viewBox="0 0 32 32" shape-rendering="geometricPrecision" text-rendering="geometricPrecision">
<style><![CDATA[
#envIElcomrA2 {animation: envIElcomrA2_c_o 3000ms linear infinite normal forwards}@keyframes envIElcomrA2_c_o { 0% {opacity: 0.5} 50% {opacity: 1} 100% {opacity: 0.5}} #envIElcomrA3_to {animation: envIElcomrA3_to__to 3000ms linear infinite normal forwards}@keyframes envIElcomrA3_to__to { 0% {transform: translate(16.082622px,12.517157px)} 50% {transform: translate(16.082624px,11.426182px)} 100% {transform: translate(16.082624px,12.52px)}}
]]></style>
<g id="envIElcomrA2" style="mix-blend-mode:color-burn" transform="translate(1.003033-.017157)" opacity="0.5"><g id="envIElcomrA3_to" transform="translate(16.082622,12.517157)"><path d="M7.2,16l1.1-.2c1.6-.3,3.3-.5,5-.7-2.4,2.3-3.9,5.3-4.7,7.9h14.7c.4-1.5,1.1-3,2.3-4.1l.2-.2c.2-.2.3-.4.3-.6C26.6,13,24.2,8,19.8,5.3c-.8-1.4-2-2.4-3.6-2.9l-.9-.3c-.3-.1-.6-.1-.9.1-.2.2-.4.5-.4.8v2.4l-1.4.7c-.4.2-.6.5-.6.9v.5L7.3,10.6c-.8.5-1.3,1.5-1.3,2.5v1.9c0,.3.1.6.4.8.2.2.5.2.8.2Z" transform="translate(-16.082622,-12.517157)"/></g><path d="M6.8,25c-.5.5-.8,1.2-.8,2v2c0,.6.4,1,1,1h18c.6,0,1-.4,1-1v-2c0-.8-.3-1.5-.8-2h-18.4Z" transform="translate(.000002 0)"/></g></svg>
