<!DOCTYPE svg PUBLIC "-//W3C//DTD SVG 1.1//EN" "http://www.w3.org/Graphics/SVG/1.1/DTD/svg11.dtd">
<!-- Uploaded to: SVG Repo, www.svgrepo.com, Transformed by: SVG Repo Mixer Tools -->
<svg fill="#000000" height="800px" width="800px" version="1.1" id="Capa_1" xmlns="http://www.w3.org/2000/svg" xmlns:xlink="http://www.w3.org/1999/xlink" viewBox="-45.59 -45.59 547.08 547.08" xml:space="preserve">
<g id="SVGRepo_bgCarrier" stroke-width="0">
<path transform="translate(-45.59, -45.59), scale(17.09625)" d="M16,29.168895390980385C18.659358413133663,29.21423629554548,21.504412249329857,30.85241238016135,23.833160001565428,29.56743110652763C26.15909071107364,28.28400425077717,27.230807892215726,25.354670495439265,27.66275615218629,22.73349540395772C28.044293221764438,20.418228609450317,26.20494891383679,18.34254955094549,26.068961904986814,16C25.944124507980007,13.849516723894398,27.768167366845205,11.677409492981052,26.906337673496637,9.703223008333762C26.048646305621528,7.738516153225609,23.705470982048805,6.9102175897747085,21.733623076120722,6.0690735207095585C19.917226433916433,5.294241314804266,17.94487645227176,5.393059194825063,16,5.050835153416676C13.61647639543726,4.631425951463025,11.141819766727544,2.755941355142464,8.969665881136764,3.823104111943893C6.827305290051889,4.875629648744461,6.900317214197949,7.990798108056353,5.754138709149091,10.084549225647654C4.639000007605146,12.121599207253634,1.9083160180148515,13.711597265903977,2.3036891048883685,15.999999999999998C2.718548818667868,18.401190507898704,6.608731253301333,18.622067057849033,7.612792125077474,20.84235672433586C8.79910115620263,23.46565353542246,6.276366631412171,27.274527539498784,8.319549327168387,29.302930790370908C10.168180074486347,31.1381893922132,13.39545822539413,29.124489086266063,16,29.168895390980385" fill="#c0c0c0" strokewidth="0"/>
</g>
<g id="SVGRepo_tracerCarrier" stroke-linecap="round" stroke-linejoin="round"/>
<g id="SVGRepo_iconCarrier"> <g> <path d="M432.458,330.806c8.794,0,15.926-7.132,15.926-15.926c0-8.794-7.132-15.926-15.926-15.926H331.599V155.62h100.859 c8.794,0,15.926-7.132,15.926-15.926c0-8.794-7.132-15.926-15.926-15.926H331.599V22.909c0-8.796-7.132-15.926-15.926-15.926 c-8.796,0-15.926,7.13-15.926,15.926v100.859H156.414V22.902c0-8.794-7.132-15.926-15.926-15.926 c-8.796,0-15.926,7.132-15.926,15.926v100.867H23.695c-8.794,0-15.926,7.132-15.926,15.926c0,8.794,7.132,15.926,15.926,15.926 h100.867v143.333H23.695c-8.794,0-15.926,7.132-15.926,15.926c0,8.794,7.132,15.926,15.926,15.926h100.867v100.859 c0,8.796,7.13,15.926,15.926,15.926c8.794,0,15.926-7.13,15.926-15.926V330.806h143.333v100.867c0,8.794,7.13,15.926,15.926,15.926 c8.794,0,15.926-7.132,15.926-15.926V330.806H432.458z M156.414,298.954V155.62h143.333v143.333H156.414z"/> <path d="M27.652,106.497l25.235-25.241l25.235,25.241c3.11,3.11,7.184,4.666,11.26,4.666c4.075,0,8.149-1.556,11.26-4.666 c6.222-6.213,6.222-16.299,0-22.519L75.408,58.735l25.233-25.243c6.222-6.221,6.222-16.306,0-22.519 c-6.221-6.221-16.299-6.221-22.519,0L52.887,36.214L27.652,10.973c-6.221-6.221-16.299-6.221-22.519,0 c-6.222,6.213-6.222,16.299,0,22.519l25.233,25.243L5.133,83.977c-6.222,6.221-6.222,16.307,0,22.519 c3.11,3.11,7.184,4.666,11.26,4.666C20.468,111.163,24.542,109.607,27.652,106.497z"/> <path d="M250.596,227.287l25.235-25.243c6.221-6.221,6.221-16.307,0-22.519c-6.222-6.222-16.3-6.222-22.521,0l-25.235,25.241 l-25.235-25.241c-6.221-6.222-16.299-6.222-22.519,0c-6.221,6.213-6.221,16.299,0,22.519l25.235,25.243l-25.235,25.243 c-6.221,6.221-6.221,16.307,0,22.519c3.11,3.11,7.186,4.666,11.26,4.666c4.075,0,8.149-1.556,11.26-4.666l25.235-25.241 l25.235,25.241c3.11,3.11,7.186,4.666,11.26,4.666c4.076,0,8.149-1.556,11.261-4.666c6.221-6.213,6.221-16.299,0-22.519 L250.596,227.287z"/> <path d="M228.072,117.47c32.389,0,58.735-26.346,58.735-58.735C286.807,26.346,260.461,0,228.072,0 c-32.389,0-58.735,26.346-58.735,58.735C169.337,91.123,195.684,117.47,228.072,117.47z M228.072,31.852 c14.822,0,26.883,12.061,26.883,26.883c0,14.822-12.061,26.883-26.883,26.883c-14.822,0-26.883-12.061-26.883-26.883 C201.189,43.913,213.25,31.852,228.072,31.852z"/> <path d="M396.695,338.426c-32.389,0-58.735,26.346-58.735,58.735s26.346,58.735,58.735,58.735 c32.388,0,58.735-26.346,58.735-58.735S429.083,338.426,396.695,338.426z M396.695,424.044c-14.822,0-26.883-12.061-26.883-26.883 s12.061-26.883,26.883-26.883c14.822,0,26.883,12.061,26.883,26.883S411.517,424.044,396.695,424.044z"/> </g> </g>
</svg>