<?xml version="1.0" encoding="iso-8859-1"?>
<!-- Uploaded to: SVG Repo, www.svgrepo.com, Generator: SVG Repo Mixer Tools -->
<!DOCTYPE svg PUBLIC "-//W3C//DTD SVG 1.1//EN" "http://www.w3.org/Graphics/SVG/1.1/DTD/svg11.dtd">
<svg fill="#000000" height="800px" width="800px" version="1.1" id="Capa_1" xmlns="http://www.w3.org/2000/svg" xmlns:xlink="http://www.w3.org/1999/xlink" 
	 viewBox="0 0 455.896 455.896" xml:space="preserve">
<g>
	<path d="M432.458,330.806c8.794,0,15.926-7.132,15.926-15.926c0-8.794-7.132-15.926-15.926-15.926H331.599V155.62h100.859
		c8.794,0,15.926-7.132,15.926-15.926c0-8.794-7.132-15.926-15.926-15.926H331.599V22.909c0-8.796-7.132-15.926-15.926-15.926
		c-8.796,0-15.926,7.13-15.926,15.926v100.859H156.414V22.902c0-8.794-7.132-15.926-15.926-15.926
		c-8.796,0-15.926,7.132-15.926,15.926v100.867H23.695c-8.794,0-15.926,7.132-15.926,15.926c0,8.794,7.132,15.926,15.926,15.926
		h100.867v143.333H23.695c-8.794,0-15.926,7.132-15.926,15.926c0,8.794,7.132,15.926,15.926,15.926h100.867v100.859
		c0,8.796,7.13,15.926,15.926,15.926c8.794,0,15.926-7.13,15.926-15.926V330.806h143.333v100.867c0,8.794,7.13,15.926,15.926,15.926
		c8.794,0,15.926-7.132,15.926-15.926V330.806H432.458z M156.414,298.954V155.62h143.333v143.333H156.414z"/>

</g>
</svg>